<svg width="640" height="340"  xmlns="http://www.w3.org/2000/svg"><g transform="translate(20, 20)"><path class="x axis" d="M0,214.63304422491177L3.0150753768844223,214.6598859667774L6.030150753768845,214.69746483179637L9.045226130653266,214.74628761441943L12.06030150753769,214.8063487756167L15.075376884422111,214.87681300448037L18.090452261306535,214.9553901650528L21.105527638190953,215.03738319228233L24.12060301507538,215.1148759020258L27.1356783919598,215.17709935179408L30.150753768844222,215.2130160198014L33.165829145728644,215.21599354802478L36.18090452261307,215.18835802987L39.19597989949749,215.14256964513015L42.211055276381906,215.0971845149701L45.226130653266324,215.06938495681894L48.24120603015075,215.068362719524L51.25628140703517,215.09311998775223L54.271356783919586,215.13479225903018L57.286432160804004,215.18092470587032L60.30150753768842,215.21908657641524L63.31658291457284,215.23919200215497L66.33165829145726,215.23532931364338L69.34673366834167,215.20746128186195L72.3618090452261,215.1620047003958L75.3768844221105,215.11011979785218L78.39195979899493,215.0641495154353L81.40703517587934,215.03437948440256L84.42211055276377,215.02780755318952L87.43718592964818,215.04837617143158L90.4522613065326,215.09676711764354L93.46733668341702,215.16927328546979L96.48241206030144,215.25761692980885L99.49748743718587,215.3516935341526L102.51256281407028,215.4443948173286L105.5276381909547,215.53491632576475L108.54271356783912,215.62737671871747L111.55778894472354,215.72527063914802L114.57286432160795,215.82583928137637L117.58793969849238,215.9187377976288L120.60301507537679,215.9902084301795L123.61809045226121,216.02995466747595L126.63316582914563,216.0361534214472L129.64824120603004,216.01566972871746L132.66331658291446,215.9798422494875L135.6783919597989,215.93861862214868L138.6934673366833,215.8959137394663L141.7085427135677,215.8479141102253L144.72361809045213,215.78498073726917L147.73869346733656,215.69682840396774L150.75376884422099,215.5792138612053L153.76884422110544,215.4388607134115L156.78391959798986,215.29355781120677L159.7989949748743,215.16692799703932L162.81407035175874,215.0804908720547L165.82914572864317,215.04688773010685L168.8442211055276,215.06700067508683L171.85929648241205,215.13131834005415L174.87437185929647,215.22407994761085L177.8894472361809,215.32791633844045L180.90452261306535,215.42718225644268L183.91959798994978,215.50953229737019L186.9346733668342,215.56653056619245L189.94974874371866,215.5941601487161L192.96482412060308,215.59304764782922L195.9798994974875,215.5676956437726L198.99497487437196,215.52473253438416L202.0100502512564,215.47128250944692L205.0251256281408,215.4143270779619L208.04020100502527,215.36058998430542L211.0552763819097,215.3156646873152L214.07035175879412,215.28205476356845L217.08542713567857,215.25752399902416L220.100502512563,215.23568903882253L223.11557788944742,215.2094694289547L226.13065326633188,215.17585445846584L229.1457286432163,215.13925454183743L232.16080402010076,215.11125961631615L235.17587939698518,215.1064487853102L238.1909547738696,215.13587975614394L241.20603015075406,215.20122060285905L244.22110552763849,215.292414207273L247.2361809045229,215.39035499733336L250.25125628140736,215.47356324226752L253.2663316582918,215.52581205606762L256.28140703517624,215.54096652274205L259.29648241206064,215.52283337853163L262.3115577889451,215.4807714945619L265.32663316582955,215.42445676805625L268.34170854271395,215.36142471654387L271.3567839195984,215.29817235143142L274.37185929648285,215.24211130822005L277.38693467336725,215.2009266847972L280.4020100502517,215.17902423959123L283.41708542713616,215.1744571754389L286.43216080402055,215.17992467490467L289.447236180905,215.18773283828688L292.46231155778946,215.19491804333478L295.47738693467386,215.204443495186L298.4924623115583,215.22163039847393L301.5075376884427,215.24872256708602L304.52261306532716,215.28181297353444L307.53768844221156,215.3124508256291L310.552763819096,215.332689588589L313.56783919598047,215.33984991758686L316.58291457286487,215.33761997074706L319.5979899497493,215.3328190766843L322.6130653266338,215.3300299750689L325.62814070351817,215.3275700912973L328.6432160804026,215.3173489641594L331.6582914572871,215.28885531791494L334.67336683417153,215.2351389796019L337.68844221105593,215.1575280707022L340.7035175879404,215.0667579377648L343.71859296482484,214.98022207155756L346.73366834170923,214.91692537723674L349.7487437185937,214.89216726255466L352.76381909547814,214.9133111255855L355.77889447236254,214.97725199903172L358.793969849247,215.0699566047425L361.80904522613145,215.16877105963295L364.82412060301584,215.24772610026253L367.8391959799003,215.28482517679464L370.85427135678475,215.26884575914872L373.86934673366915,215.20331201671468L376.8844221105536,215.1064768947876L379.89949748743805,215.0073733869417L382.91457286432245,214.93826218089964L385.9296482412069,214.9245332544827L388.94472361809136,214.97504388720466L391.95979899497576,215.0776201611323L394.9748743718602,215.2031458543995L397.98994974874466,215.317178782592L401.00502512562906,215.39319345421654L404.0201005025135,215.4204598663266L407.03517587939797,215.40291036289824L410.05025125628237,215.35091966992616L413.0653266331668,215.272233707329L416.0804020100513,215.1686181622252L419.09547738693567,215.04088242485835L422.1105527638201,214.89855405015072L425.1256281407046,214.765931781527L428.140703517589,214.67753948189699L431.1557788944734,214.66335147735805L434.1708542713579,214.732551289029L437.1859296482423,214.86693519194299L440.20100502512673,215.02904092789208L443.2160804020112,215.179973937662L446.2311557788956,215.2956380840703L449.24623115578004,215.37203321153527L452.2613065326645,215.41847883784382L455.2763819095489,215.44561202114335L458.29145728643334,215.45715010079624L461.3065326633178,215.45023639408413L464.3216080402022,215.42245492615538L467.33668341708665,215.37927467840504L470.3517587939711,215.33588218154085L473.3668341708555,215.3112984810134L476.38190954773995,215.31786823265992L479.3969849246244,215.35276715364566L482.4120603015088,215.39765073458892L485.42713567839326,215.42760652347857L488.4422110552777,215.4242439644271L491.4572864321621,215.3848078113188L494.47236180904656,215.32215658633817L497.487437185931,215.25700759055096L500.5025125628154,215.20849664368768L503.51758793969987,215.18872947620693L506.5326633165843,215.2025268876394L509.5477386934687,215.24948841952425L512.5628140703532,215.3250474379547L515.5778894472376,215.41992670428365L518.5929648241221,215.5199449153212L521.6080402010065,215.60799270120683L524.6231155778909,215.66779809848992L527.6381909547754,215.68774569543268L530.6532663316598,215.66372595503378L533.6683417085442,215.60114025250007L536.6834170854287,215.51573770251682L539.6984924623131,215.43152321197576L542.7135678391975,215.37433825129318L545.728643216082,215.36279839499883L548.7437185929664,215.401319316816L551.7587939698508,215.47933259325305L554.7738693467353,215.5766772783337L557.7889447236197,215.67132554592422L560.8040201005041,215.74531860801875L563.8190954773886,215.7874499839694L566.834170854273,215.79352231169668L569.8492462311574,215.76531047831952L572.8643216080419,215.70867806183412L575.8793969849263,215.6312455786775L578.8944723618107,215.54043389559519L581.9095477386952,215.44250935240206L584.9246231155796,215.3424136453837L587.939698492464,215.2437574208626L590.9547738693485,215.14877150028894L593.9698492462329,215.05841847644626L596.9849246231173,214.97278644533398L600.0000000000017,214.89158932838478"></path><path class="y axis" d="M100.35070461467406,0L100.2223056239537,1.5075376884421985L100.08878632075125,3.015075376884454L99.95470895005496,4.5226130653265955L99.83024920576581,6.030150753768851L99.72915338862084,7.537688442211049L99.66291379788149,9.045226130653248L99.6345990877556,10.552763819095503L99.63771225262036,12.060301507537702L99.66168980313428,13.5678391959799L99.69939142286118,15.075376884422099L99.7504398555062,16.582914572864354L99.81860564525685,18.090452261306552L99.90620149171667,19.59798994974875L100.00929130328518,21.10552763819095L100.11580806275275,22.613065326633148L100.20734726801547,24.120603015075403L100.26453689728167,25.6281407035176L100.2740564738008,27.1356783919598L100.23380754203868,28.643216080402L100.15360416079628,30.150753768844197L100.05239448022374,31.658291457286452L99.95531549553307,33.16582914572865L99.89167042242441,34.67336683417085L99.89011389564456,36.18090452261305L99.96714707115592,37.688442211055246L100.11193312980328,39.1959798994975L100.27873371821802,40.7035175879397L100.39801780486027,42.2110552763819L100.40522596620964,43.7185929648241L100.2721884563117,45.226130653266324L100.02254053481643,46.73366834170855L99.72280054415609,48.24120603015075L99.45560417423593,49.74874371859295L99.28974190673617,51.256281407035175L99.2595749549838,52.76381909547737L99.35931000238024,54.2713567839196L99.55101080182104,55.77889447236183L99.78103827590056,57.286432160804L99.99736669220594,58.793969849246224L100.1611033770466,60.30150753768845L100.249920350556,61.80904522613065L100.25643794889454,63.31658291457288L100.18626764474948,64.82412060301505L100.05771761667965,66.3316582914573L99.90111724454756,67.8391959798995L99.75425654551235,69.3467336683417L99.65226911057624,70.85427135678393L99.61401610400019,72.36180904522612L99.63157772860762,73.86934673366835L99.67082054128456,75.37688442211055L99.68661636816444,76.88442211055278L99.64673405741344,78.39195979899498L99.5511134516433,79.89949748743717L99.43436307520855,81.40703517587943L99.3486615102786,82.9145728643216L99.33577388539797,84.42211055276383L99.40359868832053,85.92964824120602L99.52121535313546,87.43718592964822L99.63666114274649,88.94472361809048L99.70823752253695,90.45226130653265L99.7306286869699,91.95979899497488L99.7390465159138,93.4673366834171L99.78811515278066,94.97487437185927L99.91831654800701,96.48241206030153L100.13037416758377,97.9899497487437L100.38189265551647,99.49748743718592L100.60614362746335,101.00502512562815L100.74033221835302,102.51256281407032L100.74773893215799,104.02010050251258L100.62520966108532,105.52763819095478L100.39786151526091,107.03517587939697L100.10898008841501,108.5427135678392L99.81147880858536,110.05025125628137L99.5611338009525,111.55778894472363L99.40793430211114,113.06532663316582L99.38407194839198,114.57286432160802L99.49270864838986,116.08040201005025L99.70453364695803,117.58793969849245L99.96596256659316,119.0954773869347L100.21649942711105,120.60301507537687L100.40813246340898,122.1105527638191L100.5189437353758,123.6180904522613L100.5552875382428,125.1256281407035L100.54127546357209,126.63316582914575L100.50037996359713,128.14070351758792L100.43933118609513,129.64824120603015L100.34498792431819,131.15577889447238L100.19738171296625,132.66331658291458L99.9907325078735,134.1708542713568L99.74720386162166,135.67839195979897L99.51292497122763,137.1859296482412L99.3390137308661,138.69346733668343L99.26089567980043,140.20100502512562L99.28857656485962,141.70854271356785L99.41006855997226,143.21608040201005L99.60045412875664,144.72361809045225L99.82785297286492,146.23115577889448L100.05437737922416,147.7386934673367L100.23762798185261,149.2462311557789L100.33936448533686,150.7537688442211L100.34109847561747,152.2613065326633L100.25742674648909,153.76884422110552L100.1353456782168,155.27638190954775L100.03564876429854,156.78391959798995L100.00549636728603,158.29145728643215L100.05816286822908,159.79899497487438L100.17099419181991,161.30653266331657L100.300152336341,162.8140703517588L100.40146234908435,164.32160804020103L100.4462666726554,165.8291457286432L100.42710174900452,167.33668341708542L100.35440114331054,168.84422110552762L100.24875367394547,170.35175879396985L100.13343650079048,171.85929648241208L100.02958432342344,173.36683417085425L99.95319356026229,174.87437185929647L99.91228880979135,176.3819095477387L99.90492509766985,177.8894472361809L99.92079057678194,179.39698492462313L99.9471348319078,180.9045226130653L99.97530218091939,182.41206030150752L100.0027408831309,183.91959798994975L100.02925563995598,185.42713567839195L100.05134687414673,186.93467336683418L100.05993567988408,188.4422110552764L100.04373371232144,189.9497487437186L99.9962633295507,191.4572864321608L99.92181425464355,192.964824120603L99.83623847702025,194.47236180904525L99.76166199174385,195.97989949748745L99.7182289623732,197.48743718592965L99.71736688611047,198.99497487437185L99.75900249754233,200.50251256281408L99.83240978409455,202.0100502512563L99.9197981456309,203.5175879396985L100.00261459470258,205.0251256281407L100.06962801499934,206.5326633165829L100.12294608906322,208.04020100502512L100.17721951661328,209.54773869346735L100.25092656569484,211.05527638190955L100.35433160222053,212.56281407035175L100.4812769820855,214.07035175879395L100.6092626184336,215.5778894472362L100.70719311124189,217.0854271356784L100.74613960958068,218.5929648241206L100.70791552187256,220.1005025125628L100.58821413459113,221.60804020100502L100.39429675953386,223.11557788944725L100.14039942245594,224.62311557788945L99.8448123501981,226.13065326633168L99.53056809674047,227.63819095477385L99.22757150454959,229.14572864321607L98.97168528713017,230.6532663316583L98.79821996662805,232.1608040201005L98.73211959056094,233.66834170854273L98.78053982675183,235.1758793969849L98.93205244665924,236.68341708542712L99.1623000515034,238.19095477386935L99.44245838812662,239.69849246231155L99.74640017729305,241.20603015075378L100.05398612842008,242.71356783919597L100.35023247074813,244.22110552763817L100.62211722027547,245.7286432160804L100.85585649918471,247.23618090452263L101.03675073089181,248.74371859296483L101.15153652616586,250.25125628140702L101.19196857350832,251.75879396984925L101.15834945516697,253.26633165829145L101.06193080780288,254.77386934673368L100.92453071552355,256.2814070351759L100.77364001434145,257.7889447236181L100.63363336695508,259.2964824120603L100.51712082143418,260.8040201005025L100.42210712592019,262.3115577889447L100.33778831737422,263.81909547738695L100.25573671222689,265.32663316582915L100.17844501995529,266.83417085427135L100.11818468354122,268.34170854271355L100.0867007241252,269.8492462311558L100.08439289953179,271.356783919598L100.09915584152388,272.8643216080402L100.11735173372102,274.3718592964824L100.13808760414341,275.8793969849246L100.17735085289246,277.38693467336685L100.25580048743426,278.89447236180905L100.37821514757668,280.40201005025125L100.52137272510718,281.90954773869345L100.6418120598791,283.4170854271357L100.699399900024,284.9246231155779L100.68016410423608,286.4321608040201L100.60286200239231,287.9396984924623L100.50648887755287,289.4472361809045L100.42917309301183,290.95477386934675L100.39247695971046,292.46231155778895L100.39819808533007,293.96984924623115L100.43498138907323,295.4773869346734L100.48742980072394,296.98492462311555L100.54239787226048,298.4924623115578L100.59132497617433,300"></path><path class="x axis arrow" d="M593.5437297343547,219.73489962267314L596.6987031838321,218.63175802859652L599.8823826840846,217.54655771625428L603.0809913693005,216.4706881445142L606.2743242127785,215.39152117168808L606.4409320872016,214.94448598420036L603.5646659847715,213.66715229821915L600.6388973167832,212.42075771571183L597.6663964909055,211.20357073188546L594.6559724939275,210.01008572999663"></path><path class="x axis arrow" d="M6.330902756740244,219.8132543157388L3.301747177515584,218.63147655275418L0.26726803383850284,217.45302601755236L-2.776832363624242,216.28058876596657L-5.83493309297612,215.11690172181147L-5.909878405920914,215.27639453500083L-3.0016797702882987,214.01901868227122L-0.1073594308055442,212.75296889444792L2.778029219730324,211.48133680103285L5.659921919912902,210.20751973864697"></path><path class="y axis arrow" d="M103.6316814003861,6.116831859961394L102.9028722499701,4.4068556321458345L102.2023619173215,2.6940495225535415L101.54055996018066,0.9773725754105271L100.92330993484512,-0.7437595649130913L100.34731933868085,-2.4690176481538515L99.79897428293242,-4.197040285436117L99.25971923742559,-5.925971923742509L100.59793387157943,-5.940206612842076L99.77377970461771,-4.23976488668103L98.94075436994882,-2.5402102772908393L98.08253568722634,-0.8431750027059479L97.18920344634056,0.8503489160626714L96.26159529818628,2.540445244104319L95.30932702888848,4.228075560031698L94.34588767104654,5.914588767104647"></path><path class="y axis arrow" d="M104.92964146310459,294.0129641463105L104.31684257034846,295.734541399892L103.71047936994594,297.4567622227089L103.10279245509872,299.1788506740813L102.47945028467379,300.89937359989597L101.82177440007308,302.616463154293L101.11274043126096,304.32841690026896L100.34437779190786,306.0344377791908L99.79207067230912,306.0207929327691L99.27899824991862,304.289243032151L98.77880625914541,302.55640508837115L98.27008071508394,300.82442049992017L97.73852333899957,299.09471909467146L97.17831276153886,297.3678830095604L96.59040976403031,295.6438161664541L95.97962337579035,293.92203766242096"></path><path d="M33.33333333333333,225.19944313790148L38.666666666666664,226.7474450296408L44,227.91293863391235L49.33333333333333,228.5471912264366L54.66666666666666,228.48922487718005L59.99999999999999,227.57100331724848L65.33333333333333,225.62401253145083L70.66666666666666,222.48707488229238L76,218.01512122403565L81.33333333333333,212.08853234970167L86.66666666666666,204.6225603053793L92,195.57626209878973L97.33333333333333,184.96033304020563L102.66666666666666,172.84322264896343L108,159.3549583066224L113.33333333333333,144.6881926207291L118.66666666666667,129.09612756350427L123.99999999999999,112.88714521344846L129.33333333333331,96.41618047219916L134.66666666666666,80.07309101561464L140,64.26849707728371L145.33333333333334,49.417760561467844L150.66666666666663,35.9239322007644L155.99999999999997,24.160602118906297L161.33333333333331,14.455632233628933L166.66666666666669,7.076722559065104L172,2.219667629661785L177.33333333333334,0L182.66666666666669,0.44850672021220817L188,3.510858091299326L193.33333333333331,9.051325235078366L198.66666666666666,16.860304754760705L203.99999999999997,26.665135090372644L209.33333333333331,38.14349770974445L214.66666666666666,50.93856061811593L219.99999999999997,64.67495025962083L225.33333333333331,78.97463342172998L230.66666666666666,93.4718501968211L236,107.82635418159131L241.33333333333331,121.734374542013L246.66666666666666,134.93690121351446L251.99999999999994,147.22509300983845L257.3333333333333,158.4428027955589L262.6666666666667,168.48638990001254L267.99999999999994,177.30213623434707L273.3333333333333,184.8816913264568L278.66666666666663,191.25603882267876L283.99999999999994,196.48850284680532L289.3333333333333,200.66730025643614L294.66666666666663,203.8981002605379L300,206.29698382390268L305.3333333333333,207.9841104215182L310.6666666666667,209.07830765345523L315.99999999999994,209.69270787172204L321.3333333333333,209.9314718704764L326.6666666666667,209.88756774514133L332,209.64151631815201L337.33333333333337,209.2609743827256L342.6666666666667,208.80100319877L348.00000000000006,208.30486070895802L353.33333333333326,207.80515947105766L358.66666666666663,207.32524546428948L363.99999999999994,206.88067270503154L369.3333333333333,206.48067211484286L374.6666666666667,206.12953778343177L380,205.82787760748045L385.33333333333337,205.57369675684217L390.66666666666663,205.36330056183976L396,205.19201776365807L401.33333333333326,205.0547555708833L406.66666666666663,204.94640487864626L412,204.86211780251847L417.3333333333333,204.7974809428425L422.66666666666663,204.74860714764492L427.99999999999994,204.7121665786916L433.3333333333333,204.6853751322132L438.66666666666663,204.66595515730057L444,204.65208028311918L449.3333333333333,204.64231324400637L454.6666666666667,204.63554302383466L460.00000000000006,204.63092549926165L465.3333333333333,204.6278300610694L470.66666666666663,204.62579340975518L475.99999999999994,204.62448080733287L481.3333333333333,204.62365446102137L486.66666666666663,204.6231483520805L491.99999999999994,204.62284864374007L497.33333333333326,204.622678752409L502.66666666666663,204.6225882017314L508,204.6225444647584L513.3333333333333,204.62252710969102L518.6666666666666,204.62252368134375L524,204.62252686209777L529.3333333333334,204.6225325560189L534.6666666666666,204.62253862495848L540,204.6225440752167L545.3333333333333,204.62254854863238L550.6666666666666,204.62255201449406L556,204.62255459050886L561.3333333333333,204.62255644429828" class="bgline" style="stroke: rgb(255, 255, 255); stroke-width: 6px; fill: none;"></path><path d="M32.35904715971234,226.0386205564995L35.11561082845616,226.73519093198303L37.87993176010769,227.42507977996615L38.12378950634189,227.36850053017164L40.88157041716779,227.84701196075866L43.64433154451004,228.3198259866888L43.851686132307194,228.22472580817265L46.575725944741045,228.42124159595403L49.29802491422178,228.6214170044683L49.331831054478144,228.51263603192692L51.9943479298753,228.38819997649856L54.65770185857266,228.28301769642823L54.494877490067005,228.23977284353003L57.13303632364707,227.73926634190607L59.77623722056978,227.24608133153964L59.55726938057449,227.26781364790165L62.19275317675887,226.27296368006267L64.83985427186131,225.28606944165182L64.69316740288342,225.3519144952778L67.38384595550696,223.7936517543136L70.09869604627501,222.24566295600644L70.09940959062823,222.31794460370492L72.84703431366627,220.1061057874923L75.5929727567192,217.8937641992286L75.64184664214554,217.93454573270358L77.47598941946359,215.97169681419928L79.28682751651561,214.00360492917912L81.07525440611063,212.03047108653777L81.06746427859578,212.04105131563418L82.41466924401661,210.17703561217544L83.79989965273019,208.3198107982025L85.23633513848408,206.47173059870823L86.71803104232403,204.63173336868618L86.892912826869,204.65590671294262L88.12547213548693,202.87109797786474L89.32274572693422,201.08108848311474L90.46933216727786,199.28360821229762L91.56530444364161,197.47866792298097L92.624985667094,195.66837869761963L92.61174805582637,195.6530960781743L93.49263652039554,193.88276973573218L94.40611050280225,192.1165360503601L95.363180924422,190.3557779654086L96.36292968619249,188.60038017000124L97.3908179104295,186.84851661856644L98.41839972788578,185.09661458322958L98.5262346951802,185.0915966086451L99.30906759204535,183.3628837125891L99.98525353105858,181.62243568008466L100.55125981504764,179.86986378289996L101.02950987626751,178.10763543353752L101.46067250326175,176.34022571307196L101.89119547069647,174.57274560623668L102.3621618514632,172.80971578081073L102.13783759764212,172.79094717396754L102.6635225594066,171.090977897293L103.26888487640969,169.3988848358938L103.94238981631798,167.71352776574105L104.67094901876119,166.03361288455477L105.44364168462536,164.35806065644238L106.24831500116049,162.6856697592825L107.06568612555671,161.01453405775428L107.86954157298652,159.34206231311748L107.96963754111535,159.35219810172242L108.61737757920736,157.727570840246L109.23179551516314,156.09991431720866L109.83727569097998,154.4714452760079L110.45463632780593,152.8440562694254L111.08701402037384,151.21803244051182L111.71565790033233,149.5916691763799L112.30788200773608,147.96199504618662L112.83333308670235,146.32625068166283L113.28079161470137,144.68341613310102L113.07405615442191,144.66602090043764L113.38072100758377,143.08743116105626L113.71720673571075,141.51139151151062L114.12141621110828,139.9411431621784L114.60406804717006,138.3776027000847L115.1478260874446,136.81928764839375L115.72258693872729,135.2636237581232L116.30826771546147,133.70889366979281L116.90989801668115,132.1555274824319L117.55419403319054,130.60580979321264L118.27011863777284,129.0622173211309L118.53395606041337,129.0852109327632L119.39402553461794,127.49118965884128L120.27464892294526,125.89885912763464L121.12482139028093,124.3040237366464L121.89682230008825,122.70275803799794L122.55361454536391,121.09201539937928L123.07399994188846,119.47005208111474L123.45857376373908,117.83691704980532L123.73486181943929,116.1948745486489L123.95611031014766,114.54830455248563L124.18927701871849,112.90271493601591L123.96033859844893,112.88393460195331L124.36529134362844,111.22644565111389L124.85888862679111,109.57613252264841L125.39572613515318,107.92931971335099L125.92265102716377,106.28170447250142L126.4090718064668,104.63081040224154L126.86420321874536,102.97738344112261L127.33014486884663,101.32483157449005L127.8547134203439,99.67702558662594L128.46110572189875,98.0358432747349L129.13344388008008,96.39999931492082L129.29289841733976,96.41288163317196L129.95625658108878,94.7891806231192L130.55984156961694,93.16060308300939L131.1014304035146,91.526967653464L131.5998245443831,89.88980823145727L132.08131290941014,88.25126956995521L132.56980839497623,86.61330257682769L133.08312496982964,84.97736058550936L133.63118876043436,83.34425340832604L134.21251535176967,81.71385994087865L134.81093530398945,80.08486101685023L134.86479243375365,80.0898056297629L135.4122305875284,78.51053617015583L135.90467119601746,76.92662691653268L136.34831703234133,75.33860115751412L136.7651004110082,73.74830918334635L137.17802216981028,72.15769142880697L137.59916232445045,70.56776700819066L138.02957025277755,68.97862445084971L138.4692079208083,67.39026054809827L138.9258876493071,65.80333437588132L139.4137674942017,64.21904035956513L139.41029586001207,64.21555208120131L140.03469088130873,62.56832554141718L140.67782375930418,60.92278132957048L141.3211414981615,59.277253714957766L141.95952784288326,57.63128334842003L142.6072645090694,55.98615247528201L143.2910186061601,54.344255330057365L144.03347662257886,52.707628757935595L144.83625133514022,51.07641755773406L145.67097940926664,49.448075203939055L145.89010774472635,49.472775777462374L146.6975965510186,47.79996195307598L147.38768493578493,46.11554772210499L147.96088482027778,44.41958366779755L148.4551830432064,42.71582329263833L148.92573250710237,41.00971628824999L149.4188898253876,39.305843179613646L149.95786635179795,37.606497494616235L150.54725474661208,35.912133036794785L150.5221200385261,35.90754833359591L151.31588232577627,34.23068354942984L152.17543918263422,32.56127635526593L153.09726497368237,30.898927132357528L154.05791251762554,29.240978222696526L155.01890006587766,27.583067851364092L155.94118157170956,25.920770282171702L156.79858810157472,24.251119355779167L156.81158430297313,24.272102970197523L157.65669987306643,22.648594119542963L158.45250784255393,21.01831106265672L159.22005697313946,19.38414561846639L159.97856453739456,17.748737983736987L160.7383096648783,16.113500373677823L161.49768194820388,14.478211539807546L161.3597570806275,14.460406877121386L162.5517698956614,12.590143523492316L163.75409270016556,10.721743135156714L165.00039815601377,8.861290199454572L166.32485158029203,7.014958224143015L166.42570069758085,7.010573840664563L168.34887606504668,5.43146931724948L170.2928992052367,3.85808781543966L172.19935712542446,2.27439410577324L172.17882974613963,2.327088965330802L174.80909053202373,1.195386482538936L177.3882110363431,0.03296451671496925L177.3454625396464,-0.03605804407220603L180.03233518844354,0.12812640671069175L182.7073381461545,0.32759740743438215L182.83669725601544,0.37447620411745675L185.45849587646643,1.9251872252157796L188.07972565179762,3.4761459187945434L188.0639865384418,3.4954595008239835L189.83484944873598,5.343945969799108L191.6111146173685,7.191132365886574L193.36647030202255,9.043350704452621L193.30420082967171,9.05629942384627L194.26807200079622,10.635647001516475L195.21369467890793,12.218110392713356L196.16968724270518,13.798803192219907L197.15826678614238,15.373931973268384L198.18576367653935,16.94241586610633L198.16663130344386,16.92830326108964L199.05993823127415,18.561840852752766L199.95587004032404,20.195021493657237L200.85393300454976,21.827912324321574L201.76239840700038,23.459388554512657L202.69042994764797,25.088204036544937L203.6406454067631,26.714002785299385L203.7150998284255,26.698229261381982L204.5583383232214,28.32854757575302L205.39253893696542,29.95991573568722L206.21043404127795,31.593177953159397L207.0120661786257,33.22832928641162L207.8027529834667,34.86475203590663L208.58864124853113,36.50173218659614L209.37321902531798,38.138864564372625L209.39589356383144,38.136978504543094L210.08634800444898,39.733882518852L210.78315991567962,41.33012404110872L211.49456274629512,42.924845089467055L212.22954133065278,44.51710938254823L212.99594768447042,46.10609868644693L213.80025268980023,47.69113869086101L214.64692827979906,49.27176338967661L215.5346933824561,50.84810627938592L215.78664756817935,50.82984880171756L216.70130821143434,52.52282577888394L217.57292109337445,54.2199812204492L218.36066032550085,55.92527792300106L219.03995042667424,57.641101324710746L219.6119623173425,59.367337769275196L220.10154596151884,61.10157517562973L220.54586010640475,62.84020670110604L220.9811883481957,64.579710450248L220.76914909657458,64.60323313714056L221.18330992013023,66.208724185227L221.64109110456752,67.81014797668152L222.14545808336229,69.40722800808405L222.69454695937452,71.00013807322827L223.28134096551426,72.58953243062803L223.8928381959111,74.1766234060598L224.509220023462,75.76325893110632L225.10503122720368,77.35181250553208L225.6555586376056,78.94458843862375L225.55628943760885,78.95412777500397L226.00431885384802,80.57822535661174L226.44456426371931,82.20303884633611L226.92453992878757,83.82419827787695L227.47722281903097,85.43867070401495L228.1023644606089,87.04647897730592L228.76744655838155,88.65061385987516L229.42884115477847,90.25508788812849L230.05942147198274,91.86239595730348L230.66423566914213,93.4720737797393L230.6818960156769,93.4704356025793L231.3324193044296,95.05999953559638L232.03821573566907,96.6444293641265L232.78458126501468,98.22509088893358L233.53525663255573,99.80535208984702L234.25120939268882,101.38883853699156L234.90734327769297,102.97788132382274L235.49798793451734,104.5730071471001L236.0309968350122,106.17348652875796L236.51797898445776,107.77824115402333L236.3759587967364,107.79031178427968L236.8751886547438,109.54486615212434L237.36281592409014,111.30053283630261L237.8590812550981,113.05537140725909L238.38672016201465,114.8072022579606L238.96514682018366,116.55416419130975L239.60531722788238,118.29520687826442L240.30633787167466,120.03041597812171L241.0538404048906,121.76116895475232L241.15510311575486,121.75237414890779L241.9106865983994,123.39371020514179L242.62792757639997,125.0389185004401L243.2953248406865,126.68916055076161L243.91866454906142,128.34385200757512L244.51457998335943,130.0013130629419L245.1013980361763,131.65969286986862L245.69471448831464,133.31741639844472L246.30926068265362,134.97299591901094L246.29597494161115,134.97712321212902L247.09704698770727,136.72832932703622L247.96062194798637,138.47275354756124L248.88381294282524,140.21070911530177L249.85257279484117,141.94372022276337L250.84639181587036,143.6740122788052L251.8422211373439,145.40408620669302L252.8148264547529,147.13668006096756L252.96891487047606,147.10992810375282L253.8043470324914,148.70371863030033L254.5263582631283,150.31099033182858L255.12044599620774,151.93346697863248L255.59947269396892,153.56961974263749L256.00941528832755,155.2139838206834L256.42151840767264,156.85809109943273L256.9105069399139,158.4930598030344L256.76924644069476,158.51768797841532L257.64987988130366,160.19271511200168L258.6336042203026,161.85405644491172L259.6660625515846,163.50892811158585L260.6984621046386,165.16380758134562L261.7067636284033,166.8218861776112L262.6933549738255,168.48284690196064L262.7832789444993,168.46875293188603L263.9430932205291,170.21781413317413L265.0990840995747,171.96745360230847L266.2291746978729,173.7210103470033L267.3068440993568,175.48249551051092L268.31587365885025,177.25436207405542L268.1925035439644,177.26827258551367L269.37411962237474,179.18985021702582L270.56396435089715,181.1099803317182L271.7946991512982,183.0229173994341L273.07270628874545,184.9275387042902L273.0486723560236,184.94123435732723L274.3419230782223,186.54320538074774L275.60064279520157,188.1523993144849L276.8260214534931,189.7685672553567L278.0419225549756,191.38671763324174L277.9692607292214,191.43375138390667L279.6885784771177,193.1928028082442L281.43970507196514,194.94374872134665L283.2042075512851,196.69128619961845L283.2272411430469,196.7350678370653L285.85414143554453,198.83715484117545L288.4598041898438,200.94601812918307L288.46779550293877,201.02450294278654L291.07427364252294,202.66474241782907L293.70772545949796,204.29385000505985L293.8456744447806,204.35441932185682L296.56908156803615,205.52232395714586L299.3308685660035,206.66889651652093L299.55451556507865,206.6490494290572L302.30190050950097,207.42882120771884L305.0227849008267,208.2295363292484L305.1282659363222,208.23399516627381L307.7929394067125,208.78352259028304L310.45313921147823,209.33850139666242L310.5428289855876,209.34705252560246L313.22526178233994,209.62003795486453L315.92394321819637,209.8577615930421L315.9881181972756,209.75905959859523L318.67597404386913,209.76011454678434L321.3626090363029,209.76798712893338L321.32526736215056,209.6865147471628L323.99088222795586,209.63262032969686L326.6582633436868,209.63236551632352L326.6317129479814,209.69815629235154L329.31425253035655,209.66114466083258L331.9957469312465,209.61846927303844L332.0074309047674,209.6675525367677L334.67401973698475,209.47700885465383L337.3248551805867,209.2312688427843L337.2888113135958,209.13191696553497L339.91527312873546,208.78538827135316L342.54824964118797,208.45774394077222L342.5214217462455,208.4106719978115L345.1936030764359,208.1774208597281L347.8862559796875,207.99918502734585L347.924216300037,208.10265001660787L350.6332029994561,207.9657202912976L353.3385088198668,207.81896902002L353.3669362108507,207.89851752282968L356.0499893824782,207.7040867449212L358.7185472617927,207.46938405132636L358.70362597005675,207.43609137232264L361.35022308569637,207.15361371733513L363.9949289012382,206.8654637996839L363.98035022462466,206.81517355042277L366.6403184812332,206.59284525474547L369.3078602920435,206.3957621024923L369.3144526826051,206.40897818258114L371.98290692984176,206.24019884861622L374.6472974614561,206.0559887036716L374.64543957525467,206.03571436620373L377.30772756426967,205.8655305904225L379.9726176974105,205.7068482516138L379.9780170309803,205.71256354945476L382.64732503285734,205.5993285356335L385.3166098777986,205.4859720495836L385.32098490909294,205.4954417025922L387.98881812648546,205.39763632893658L390.6571196559693,205.30279876618516L390.66100729640834,205.3192457758882L393.33015121168637,205.25288826393313L395.9982483183207,205.17838197771127L395.9974174460532,205.1669314293017L398.65956956917546,205.05444709648572L401.31866977401063,204.91231713219184L401.31482611610596,204.82701092867651L403.9758596256049,204.70351552498823L406.6402883585614,204.62180079216125L406.6478565390343,204.6488483453246L409.31937310994806,204.6834252167614L411.99275789098226,204.74755521711836L411.99976956859905,204.85736444863574L414.6708422504992,204.91593358678193L417.34037073067003,204.94264883150623L417.33957619633117,204.96779342413936L420.00616348190994,204.9411909191818L422.67217507288206,204.89888280335924L422.67019355930285,204.87765352782037L425.3364336598512,204.84382550611986L428.00290817862276,204.81857467297553L428.00211419875114,204.8173841775436L430.66877726016435,204.80380903119607L433.33540729473515,204.78859023376867L433.3347946689664,204.7857072654728L436.0014097046997,204.77245241017957L438.6679497555583,204.75404925611355L438.6673336236853,204.730047704252L441.33348607233836,204.67369547541625L443.9993619481487,204.59076543509812L443.99889338384907,204.5010121667541L446.6649726516397,204.4159407322735L449.3312951993965,204.36408031338607L449.33192023863785,204.36401708630711L451.99881925561385,204.40639125798097L454.6658759345415,204.47981551815803L454.6664176924156,204.56365046262084L457.3333049008638,204.62502424366815L460.0000445845466,204.64379951022914L459.99995850631655,204.61305245259052L462.66645427253934,204.53789083965523L465.33290823536106,204.4447227718376L465.3329350003232,204.36705362059604L467.9995483652508,204.3311402763825L470.6662550539091,204.3563231247226L470.6664910085796,204.44736102328562L473.33329821846024,204.5894676400705L476.0001269675355,204.75345363606942L476.0001700031003,204.89878565676878L478.6668895133632,204.98363713261477L481.33355570253656,204.98245351034365L481.33343611490915,204.89443035533793L484.00004543126374,204.74308911297658L486.6666465326641,204.57010574695005L486.6666214023629,204.42177789694267L489.33326878507756,204.33583818446334L491.99993479554865,204.33276906742896L491.99997284886786,204.4097623770199L494.6666562827341,204.5412689962456L497.3333416826361,204.68820536712144L497.33334615816926,204.81152086601895L500.00001785939753,204.88560809769683L502.66668591286015,204.90598300404548L502.66667534934743,204.88728205039655L505.33334092483426,204.85399527382185L508.00000677190747,204.82898787646266L508.0000026265632,204.82433476269074L510.66666947243203,204.83809361043015L513.3333363899523,204.8573572007735L513.3333339566343,204.8649378134287L516.0000005761266,204.84658930430692L518.6666671141244,204.79654641002998L518.6666664330468,204.7204542382998L521.3333333031214,204.63518969736253L524.0000001375299,204.5648759588065L524.0000003818458,204.53311083782222L526.6666669614762,204.55349481036842L529.3333333338588,204.6224095188739L529.3333328983867,204.71808940337527L531.9999991568023,204.80778434520636L534.666665581364,204.86097735803463L534.6666656835047,204.86305615489235L537.3333325163918,204.82239525498636L539.9999994124179,204.7662882519668L539.9999996491858,204.72710672958414L542.6666663201586,204.72582549131334L545.3333328655679,204.7619693328171L545.3333328319451,204.81543492615594L547.9999993865417,204.85855053708656L550.6666660214827,204.8707573374958L550.666666232332,204.84736161024819L553.3333329933602,204.7985218574932L555.9999997703378,204.74142669781511L555.9999999035452,204.69192942200692L558.6666666147192,204.65991854851228L561.3333332968199,204.64881858669514" style="stroke: rgb(70, 130, 180); stroke-width: 3px; fill: none;"></path><path d="M33.33333333333333,186.52867130130068L38.666666666666664,178.10489552961943L44,169.78295443060014L49.33333333333333,161.61608002777677L54.66666666666666,153.65651244700905L59.99999999999999,145.9551657579518L65.33333333333333,138.56130229775897L70.66666666666666,131.52221756023857L76,124.88293766609334L81.33333333333333,118.68593134940446L86.66666666666666,112.97083830266246L92,107.77421561801009L97.33333333333333,103.12930394660728L102.66666666666666,99.0658148719011L108,95.6097408568856L113.33333333333333,92.78318898104055L118.66666666666667,90.60423953046563L123.99999999999999,89.08683034575026L129.33333333333331,88.24066766735797L134.66666666666666,88.07116404881143L140,88.57940373482026L145.33333333333334,89.76213572581554L150.66666666666663,91.61179457325224L155.99999999999997,94.11654877266221L161.33333333333331,97.26037644490651L166.66666666666669,101.0231678215257L172,105.38085387863077L177.33333333333334,110.30556029651868L182.66666666666669,115.76578576019386L188,121.72660346028275L193.33333333333331,128.14988450542245L198.66666666666666,134.9945418170467L203.99999999999997,142.21679294647447L209.33333333333331,149.77044013316947L214.66666666666666,157.6071658127528L219.99999999999997,165.6768416845263L225.33333333333331,173.92784936152862L230.66666666666666,182.30741055205914L236,190.7619246606328L241.33333333333331,199.23731164887386L246.66666666666666,207.67935796320768L251.99999999999994,216.03406331659386L257.3333333333333,224.24798610608215L262.6666666666667,232.2685852566957L267.99999999999994,240.04455630500922L273.3333333333333,247.5261595726331L278.66666666666663,254.66553833041303L283.99999999999994,261.4170249181805L289.3333333333333,267.73743286193246L294.66666666666663,273.58633311988604L300,278.92631269037804L305.3333333333333,283.7232139273995L310.6666666666667,287.9463530329639L315.99999999999994,291.5687163287021L321.3333333333333,294.56713305121747L326.6666666666667,296.92242356589844L332,298.6195220511279L337.33333333333337,299.6475728681275L342.6666666666667,300L348.00000000000006,299.6745491157962L353.33333333333326,298.6733019905395L358.66666666666663,297.0026631889705L363.99999999999994,294.6733190981883L369.3333333333333,291.70016957124227L374.6666666666667,288.1022326189191L380,283.9025227593752L385.33333333333337,279.1279038037598L390.66666666666663,273.8089170194991L396,267.9795857704104L401.33333333333326,261.6771978832813L406.66666666666663,254.94206713302754L412,247.81727537210833L417.3333333333333,240.3483969536918L422.66666666666663,232.58320721132225L427.99999999999994,224.5713768598236L433.3333333333333,216.36415427223125L438.66666666666663,208.01403766509497L444,199.5744392890488L449.3333333333333,191.09934377268175L454.6666666666667,182.64296280514324L460.00000000000006,174.25938836633551L465.3333333333333,166.0022467228369L470.66666666666663,157.92435540280107L475.99999999999994,150.0773853440218L481.3333333333333,142.5115303762642L486.66666666666663,135.27518615204573L491.99999999999994,128.41464057961508L497.33333333333326,121.97377773830209L502.66666666666663,115.9937971701689L508,110.51295034353853L513.3333333333333,105.56629597413482L518.6666666666666,101.18547576894332L524,97.39851202726732L529.3333333333334,94.2296283936412L534.6666666666666,91.69909490917132L540,89.82309835244638L545.3333333333333,88.61363869939379L550.6666666666666,88.07845236438479L556,88.22096271358367L561.3333333333333,89.04025816708719" class="bgline" style="stroke: rgb(255, 255, 255); stroke-width: 6px; fill: none;"></path><path d="M33.96269117349312,186.62828741284304L34.84484801726139,184.91432764719403L35.7112708744629,183.19787747233607L36.56327438302944,181.47914497198647L37.403283622511836,179.7585139929484L38.236389271960626,178.03679029884273L38.00653459917212,177.99912980987688L38.86214156365348,176.30092580924753L39.75936280601624,174.60938920786816L40.72276906254559,172.9284567052808L41.772116051434246,171.26129354349777L42.91428783484342,169.6090026802832L43.07258356034604,169.6315433531328L44.34584066158047,168.03189666516306L45.624952542059816,166.43320583520477L46.86238619856805,164.82771057033617L48.02042096708105,163.20925255144783L49.082694237735716,161.57516039998364L48.9938709668139,161.55921557074444L49.91944449728297,159.94366707948856L50.837870195824635,158.3269212314073L51.78997977551324,156.7158178809961L52.80177114623036,155.11471202361002L53.87996783295951,153.52472993902322L53.94938924945308,153.53233028404046L55.38165950663602,151.62412255088148L56.81886276567611,149.71676886780952L58.23847145892913,147.80636903943375L59.63042945238288,145.8911820483421L59.66857483373053,145.89539995025572L61.03424147307479,144.05276474125273L62.4161585348724,142.21305996639336L63.82663052691934,140.37850449413304L65.26355644176468,138.54871945038482L65.37844284115349,138.56984687602014L66.8186175456533,136.83031343090124L68.23794851998511,135.08683179631447L69.63525675971005,133.33917864693032L71.01979966426205,131.58910750606978L71.06623545085294,131.6024609582289L72.44928061082595,129.9526243618926L73.82012983789488,128.30033851742525L75.15364460344678,126.64055498001281L76.42328758991155,124.96794439305978L76.2790129049615,124.94296942781892L77.84866677179922,122.83252120342499L79.38236940839298,120.71433779671736L80.92658062968819,118.59841539242811L80.75671354342336,118.55140573796493L82.44247675461972,116.62490768977923L84.21372713190257,114.7183538292355L86.04678440753722,112.82621954106409L86.13457981876296,112.8343171092663L87.97364998587551,111.11783575889899L89.77600518707202,109.39193419643266L91.54277228358319,107.65690154842738L91.52805413828904,107.63874239624315L93.29001284838525,106.08589760344319L95.08318419302559,104.54201247425001L96.91567884523856,103.00941519732888L97.01544266250467,103.02499599352086L99.78164303418147,101.02591097714603L102.53867823446524,99.02381863669586L102.59919121287705,99.0397832327265L105.27157497914567,97.313951849125L107.89394240754075,95.56882445212557L107.82915642027857,95.52915098992605L110.41239041580052,94.07651842017341L113.00590917504768,92.62873735108403L113.00003614241929,92.57923920403456L115.62640719304959,91.46510695948513L118.24847101511644,90.34833905424307L118.29668179949614,90.2791372698517L120.91761488284537,89.48024700331717L123.54995542247728,88.6913803624885L123.71937437281058,88.64463700341315L126.39962648646322,88.24296281177521L129.095335263634,87.86564432054476L129.29115384602275,87.90887937341881L131.96584416775153,87.88724248075448L134.6404951971815,87.86529651072544L134.71834935113628,87.93557793096878L137.3544238608787,88.2699542822478L139.98419448432483,88.62086846392418L139.87658297763465,88.71853587217117L142.45538362475847,89.40895617043208L145.0484773082087,90.08326345077032L144.8648372681321,90.09985282490871L147.50649125128322,91.04271273286125L150.18902902443662,91.95610141152275L150.1470593902035,91.88839245344104L152.88183705298655,93.10451263759327L155.6102044268287,94.32404515335199L155.61405661560707,94.28023178357711L158.30655138709452,95.84119162454289L160.97959353534281,97.41040154588498L160.93921381594217,97.40003146089282L163.55807118900094,99.29836822257857L166.13556845213577,101.21136080961108L165.98024320086952,101.23319472014481L168.5054658495912,103.4553157686041L171.06336953429835,105.66743730950904L170.99714051947294,105.65237178458742L172.83292453823057,107.27823576510929L174.75743980545982,108.88007631737855L176.74375974306233,110.46518364330458L176.97060963196546,110.39413385543878L178.97858392356218,112.15799728629932L180.94671871681766,113.93158913066134L182.85527078979837,115.71973048906108L182.92606985295583,115.70776168825367L184.718526702752,117.69141746337161L186.4793387656623,119.68215163801523L188.22787281320632,121.67563219545042L188.19824041316824,121.68545306548708L189.49897739777555,123.29803961926271L190.8043718313756,124.90965938800329L192.12793503069733,126.51750771644848L193.4865149234226,128.1180873415301L193.55541078789784,128.10662400905696L194.98397303198263,129.79923782738726L196.40597034271474,131.49313048906527L197.78072489646732,133.1962259990046L199.07886902724115,134.91424515318025L198.96323465950098,134.93979102212703L200.11440557643675,136.778983654445L201.23775044100017,138.62331338356256L202.3728988865226,140.46546399876357L203.55216733979478,142.29946941436606L203.45894962278666,142.31229654693678L204.7720841000949,144.2042737481585L206.15246110674448,146.08438162273944L207.5891192528144,147.95455502230817L209.0650683526,149.8177929724188L209.22440717254403,149.78897273045442L210.44276611594165,151.33050908126822L211.6256637987439,152.87807877849824L212.75017172622705,154.43558285524782L213.80335430714857,156.00522216116974L214.7879327016785,157.5865337205636L214.65704578934273,157.60875544740924L215.574546797866,159.24733690834984L216.50420870843826,160.88390905239558L217.46413772663283,162.51548023430385L218.45783040475337,164.14147272706154L219.4809015195202,165.7626110906715L219.4626079325661,165.763682320801L220.54051554039853,167.41206736030898L221.64827311106342,169.0556287525727L222.778027752284,170.69563549690056L223.90875380683048,172.335485264309L225.01193397521047,173.97978634841223L224.99713648136745,173.98134410416435L225.99235276111557,175.6686253364686L226.94480214461655,177.36271152275944L227.8826376392456,179.05912303190664L228.83582987034495,180.75309101827725L229.82628351803984,182.44113006783783L229.79666772895933,182.44461519430268L230.88090948991587,184.13274630628314L232.002660388933,185.81496197670913L233.14781020162303,187.49348748219325L234.30139597569595,189.1706825802328L235.45275740637248,190.8482284720799L235.5318429651017,190.8355743217905L236.67436443413644,192.51871837213184L237.81540397616723,194.20209555668578L238.9526959590675,195.8860623008096L240.08225328660362,197.5712458476391L241.20468177328297,199.25755089147583L241.2612628868394,199.24869442564153L242.39524687350047,200.926471618591L243.54296310484347,202.6020799464461L244.6961594548793,204.27682274660194L245.8404525983723,205.95297171554847L246.96546668323325,207.63216561111025L247.00473809100956,207.62540490561227L248.10238992999945,209.29140103073485L249.203161098742,210.95689933981714L250.3105426635088,212.621342691125L251.4144484525093,214.28634074394444L252.49400688033475,215.9552244093451L252.4609412319124,215.95924056442445L253.4429420710207,217.61576858850398L254.38754952314886,219.27836653198554L255.32962360621678,220.94137570716487L256.3104887125861,222.59808809021115L257.35950136823163,224.24373835332236L257.4129643788724,224.2347483509729L258.57893617268167,225.82235983381332L259.74834837645335,227.40939938764984L260.88183306951015,229.002411481283L261.9607569845646,230.60449368335028L262.99306132869424,232.2143258585471L262.93715839552897,232.2222044720654L264.22219096713803,234.1744792885949L265.5283813989064,236.12312620064313L266.8540949251582,238.06842551886893L268.18800197269775,240.0123199070889L268.1851901121884,240.0115526638441L269.51028422475264,241.88342183282637L270.83254316166085,243.75579627241345L272.15735469194306,245.62771580177474L273.48673823004003,247.4988205311257L273.4832964081191,247.4981528267852L274.8095304564913,249.28432336174177L276.1276776015106,251.07200418746308L277.4394766890591,252.86087056124325L278.7510649903516,254.64977630096138L278.73547155970857,254.6519502330071L280.06479650418447,256.3406134861245L281.4059002505863,258.0269505746216L282.75580639641885,259.71154930040086L284.1074717238964,261.3958006100227L284.11614249882496,261.39252386279327L285.4409662290397,262.97442100777675L286.7445932110968,264.5607897519241L288.03561404861097,266.14981784858065L289.3332998090995,267.73743993409914L289.32657005609303,267.73897463946145L291.14017669510423,269.68044040112215L292.9957760394191,271.61233337622997L294.87963519251025,273.53778415821205L294.9896457573433,273.5056888436516L296.87462557725803,275.2589148796916L298.7429140561852,277.01630855739063L300.58697260775136,278.77975217767624L300.6072845259022,278.7575135716983L302.3820005953946,280.3573316746295L304.11920227754365,281.96757717238347L305.8267729179037,283.5860588321442L305.72851683633206,283.5984462311052L308.3140158680068,285.7356421036977L310.9097830032052,287.8695961212729L310.8406108699438,287.882326985482L313.45387587142295,289.7131649224742L316.0662231424786,291.54434066119006L316.01068944856405,291.5639629540366L318.63187045075586,293.08339784090623L321.2647279695083,294.59764042457437L321.25525469880586,294.61133347803855L323.9151981648815,295.79278474886183L326.58162023656513,296.97056847177254L326.6002825202192,296.9745785799024L329.27134883402965,297.8196712192365L331.9429583255434,298.6643371084768L331.9629111899292,298.66762448531045L334.6242870159346,299.188511864151L337.2756420829463,299.72239569391655L337.3032069275532,299.761549737124L339.9593377827519,299.977623311991L342.6173780989523,300.1864728459941L342.7160235288163,300.2022091588224L345.38225501071406,300.0377008167909L348.0471412924341,299.86768135058026L348.14098003364103,299.86228835963146L350.8328379943645,299.39521135232263L353.5495975967307,298.961295178158L353.7634406193087,299.0165697158923L356.5384723920333,298.2677362796032L359.2902179353179,297.500318152302L359.4866152002347,297.47200763479555L362.128633473886,296.2932266717265L364.7041675594259,295.0763896805681L364.64278902610806,294.9615831182261L367.13818333220115,293.3981998574468L369.64951161004666,291.84196231721654L369.5505301830792,291.7806589748918L372.1480439927056,289.9560636435049L374.79480150551365,288.1497171785598L374.81254210101076,288.14854547995725L377.49921388621533,286.0550418202196L380.17922039248356,283.95942205273195L380.1917793767203,283.9560779934167L381.9813943906217,282.3678439417708L383.7922709643692,280.78554727418106L385.6320012330666,279.2113081277515L385.72560402642813,279.22623598844217L387.5941333181205,277.475989466672L389.44303165628116,275.7208219692028L391.2503276564493,273.955225834431L391.23234735222815,273.93830423080226L392.91706632740943,271.97390862782703L394.5400766980295,269.99539851738956L396.11573620486723,268.00605792188526L395.889093725196,267.9561224362392L397.00134060113936,266.33375240820175L398.1515180951069,264.7194069826279L399.36671816585186,263.11881773496464L400.66778476039764,261.5363944111466L400.72707029685404,261.5571778353742L402.2203702430709,259.9050632512355L403.7823995101876,258.26655480154784L405.36648212697844,256.63241218636614L406.91677326286504,254.99157997456894L407.0578652665856,255.01527602821048L408.4349834389393,253.24227198154549L409.73467565995895,251.45477844448655L410.99832313017004,249.66053949375694L412.26901447108264,247.86761873279585L412.23803097820536,247.85976831680864L413.5619859501168,245.99087450073722L414.8762526808284,244.1202511539104L416.14263421827445,242.2410794118926L417.34238328788683,240.35001253844166L417.1575942572343,240.3182214169817L418.30200612616807,238.34448494329447L419.49504679572584,236.37909834938912L420.7664623050377,234.42716922269398L422.1079523382531,232.48727234525967L422.1463607470615,232.49661760623775L423.2409762203375,230.89890279212347L424.29530864276705,229.29448404992965L425.3054645217794,227.68271342242303L426.2855062905846,226.06593118768296L427.25643507291875,224.44763236458607L427.1700372527015,224.4365423302873L428.18072764830015,222.78600398994456L429.2337238312107,221.1423385857034L430.33751069991473,219.50692456171527L431.49353755733625,217.8799973696056L432.6958711662553,216.26059310436565L432.86562858577634,216.2894719223413L434.1237635866214,214.65002195985608L435.38774939673965,213.01150624528597L436.6434772693527,211.3716719163948L437.8788292021804,209.72858398986043L439.0853019445574,208.0808846801467L439.1932680139311,208.09723299008567L440.33702519761425,206.42149249111702L441.4565744942068,204.74192749940016L442.5599460051271,203.05980665372732L443.6533418275443,201.3761097949065L444.73814500257,199.6910554232423L444.74461826386903,199.69158538491382L445.80161052103597,197.99504426780098L446.84429088082464,196.29625155012496L447.8829385199863,194.59682438994318L448.93366771577615,192.89929794487898L450.01017521231745,191.20582703731316L450.04836573825224,191.2120842633895L451.1700651487424,189.529485185074L452.28573464361665,187.8459353587354L453.3693831382267,186.1573367216605L454.39912627609567,184.4602387266139L455.3621405273962,182.75261946376975L455.1913241764733,182.72640493970232L456.03706169715434,181.01455322613958L456.8642647255119,179.29975376557329L457.71399170836094,177.58853654066806L458.622236481467,175.88662605251486L459.606172599712,174.19675360305922L459.59354668351034,174.19375575656352L460.69466125822703,172.54788995131923L461.8197144817516,170.90588967240214L462.9530600780065,169.26522841580675L464.08809215165246,167.62483948547364L465.22241007083227,165.98433523606334L465.28736417076226,165.99465907225667L466.41431124762323,164.3890306673247L467.53662732522446,162.78263787160867L468.65318422869785,161.17529446904084L469.7564883333951,159.56576356509817L470.8301714781825,157.95134343800945L470.7875127850476,157.9448892084145L471.75163606502963,156.3580713356581L472.6619202886161,154.76210529386452L473.54113341767567,153.16085974600358L474.4163341934419,151.55893243125033L475.3053587868598,149.95935401763097L475.1486239121679,149.92734703084412L476.3361277843899,148.01018371069307L477.53693519868625,146.09536487853111L478.76127516890824,144.1846931971364L480.02868174216604,142.2816111586341L480.0346829199706,142.27224741364773L481.4496819131011,140.47820867195824L482.95377460298806,138.70058589833147L484.53874267149695,136.9378648257323L486.1800406830643,135.18552283246075L486.50832477518253,135.2444127216021L488.1449431340577,133.58821916762966L489.7235732080428,131.92075570627588L491.2178095228452,130.23689048633665L492.612906544488,128.53375774272646L492.56893954691225,128.53241766651158L493.77714863628046,126.89629978602426L494.926245509245,125.24794499093716L496.05060393166855,123.59446904957915L497.1797768376433,121.94198976217254L496.99899730413387,121.8992321160903L498.6117611996736,119.86911274757136L500.23280690656384,117.84083994276747L501.8593731848263,115.81379803859039L501.74240234600074,115.76895008603461L503.4405900672632,113.92263915858564L505.2232460364422,112.09687694087395L507.1119940376834,110.29692388134978L507.33981804092565,110.33500328147096L509.3994998858636,108.76210360432924L511.4914268085348,107.19789534440955L513.5763910979159,105.63181035926104L513.8322896376724,105.71815682239873L516.7089796510811,103.59166879737597L519.5207352480757,101.44541752761123L519.5529993510504,101.49754025995131L522.2154088860656,99.60255951668603L524.8096764891776,97.6835870176497L524.6388283420164,97.66730420178897L527.1527583259908,96.01859719451724L529.6495610681642,94.36268376219445L529.4619522386289,94.29739745292446L531.9809220490688,92.95430951494396L534.5207378183468,91.62220527346645L534.4668291480497,91.55706371840637L537.0893922184822,90.5877195429695L539.740249875298,89.63848527394086L539.8103040234876,89.61397358499764L542.4667371627519,88.9979621062322L545.1063881751959,88.3634496638031L545.2049684413557,88.29383757947076L547.8495140030957,87.97113312709305L550.4994639085373,87.6618927546644L550.7136294286249,87.63906661944506L553.3786000739493,87.72618984715373L556.0408084262366,87.83915721462867L556.190424593657,87.91106296115191L558.818845966721,88.38295163478713L561.4472542908925,88.85486154438001" style="stroke: rgb(255, 0, 0); stroke-width: 3px; fill: none;"></path><text class="x label" text-anchor="end" x="588" y="230.02006853870142" dy=".75em">Time of Day</text><text class="y label" text-anchor="end" x="4.800000000000001" y="100" dy="-.75em" transform="rotate(-90)">Awesomeness</text><text class="title" text-anchor="end" x="600" y="0">The most important graph ever made</text></g></svg>
